<svg xmlns="http://www.w3.org/2000/svg" width="1600" height="1000" viewBox="0 0 1600 1000" role="img" aria-label="Architectural aluminium facade placeholder">
  <defs>
    <linearGradient id="bg" x1="0" y1="0" x2="1" y2="1">
      <stop offset="0" stop-color="#f8fafc"/>
      <stop offset="1" stop-color="#e2e8f0"/>
    </linearGradient>
    <linearGradient id="glass" x1="0" y1="0" x2="0" y2="1">
      <stop offset="0" stop-color="#dbeafe" stop-opacity="0.9"/>
      <stop offset="1" stop-color="#93c5fd" stop-opacity="0.25"/>
    </linearGradient>
  </defs>
  <rect width="1600" height="1000" fill="url(#bg)"/>
  <g opacity="0.9">
    <rect x="210" y="120" width="1180" height="760" rx="20" fill="#ffffff" stroke="#cbd5e1"/>
    <rect x="250" y="170" width="1100" height="670" rx="16" fill="#f1f5f9" stroke="#cbd5e1"/>
    <g>
      <rect x="290" y="210" width="320" height="590" rx="14" fill="url(#glass)" stroke="#94a3b8"/>
      <rect x="640" y="210" width="320" height="590" rx="14" fill="url(#glass)" stroke="#94a3b8"/>
      <rect x="990" y="210" width="320" height="590" rx="14" fill="url(#glass)" stroke="#94a3b8"/>
      <g stroke="#94a3b8" stroke-width="3">
        <line x1="450" y1="210" x2="450" y2="800"/>
        <line x1="800" y1="210" x2="800" y2="800"/>
        <line x1="1150" y1="210" x2="1150" y2="800"/>
        <line x1="290" y1="505" x2="610" y2="505"/>
        <line x1="640" y1="505" x2="960" y2="505"/>
        <line x1="990" y1="505" x2="1310" y2="505"/>
      </g>
    </g>
    <rect x="250" y="170" width="1100" height="80" rx="16" fill="#0f172a" opacity="0.06"/>
    <circle cx="1310" cy="210" r="10" fill="#b08d57" opacity="0.7"/>
  </g>
  <text x="80" y="920" fill="#64748b" font-size="22" font-family="system-ui, -apple-system, Segoe UI, Roboto, Arial">Replace with real project photography (facades, glazing, doors & windows).</text>
</svg>

